<svg xmlns="http://www.w3.org/2000/svg" version="1.1" xmlns:xlink="http://www.w3.org/1999/xlink" xmlns:svgjs="http://svgjs.dev/svgjs" width="2000" height="1217" viewBox="0 0 2000 1217"><g transform="matrix(1,0,0,1,-1.2112696095522324,-0.014852535636691755)"><svg viewBox="0 0 396 241" data-background-color="#ffffff" preserveAspectRatio="xMidYMid meet" height="1217" width="2000" xmlns="http://www.w3.org/2000/svg" xmlns:xlink="http://www.w3.org/1999/xlink"><g id="tight-bounds" transform="matrix(1,0,0,1,0.24008861730862918,0.003024645914919688)"><svg viewBox="0 0 395.52 240.9939565325482" height="240.9939565325482" width="395.52"><g><svg viewBox="0 0 395.52 240.9939565325482" height="240.9939565325482" width="395.52"><g><svg viewBox="0 0 395.52 240.9939565325482" height="240.9939565325482" width="395.52"><g id="textblocktransform"><svg viewBox="0 0 395.52 240.9939565325482" height="240.9939565325482" width="395.52" id="textblock"><g><svg viewBox="0 0 395.52 240.9939565325482" height="240.9939565325482" width="395.52"><path d="M394.594 51.689C392.735 26.674 387.435 19.719 387.435 19.719 371.165-6.046 350.86-0.493 332.619 3.209 300.414 3.359 268.339 8.863 236.208 11.815 168.767 12.265 100.749 4.86 33.643 23.121 27.339 28.725-6.54 24.222 1.121 54.891 3.129 67.648 10.456 81.807 10.232 93.514 11.236 95.565 12.631 90.862 13.226 93.814 15.309 101.769 18.711 98.017 21.501 102.719 17.614 115.277 20.403 125.733 23.062 136.69 18.377 139.542 12.371 138.191 9.675 147.646 9.396 154.501 7.89 153.2 6.235 152.9 5.026 152.7 2.59 153.45 2.999 155.601 4.394 162.956-1.594 167.208 2.162 174.413-0.422 182.217 3.948 188.971 3.353 197.426 3.278 199.128 3.687 200.578 4.338 200.979 7.22 203.13 3.018 207.332 3.464 211.885 33.029 243.004 65.104 221.491 95.394 235.8 103.259 225.794 97.346 239.352 100.489 237.251 102.943 234.799 104.728 244.955 107.499 239.202 107.927 237.551 107.276 233.648 108.8 234.399 109.6 234.799 110.307 234.699 110.418 232.398 110.586 228.946 109.117 231.097 108.726 229.296 112.947 220.19 111.906 241.853 115.866 240.953 115.68 238.301 114.528 234.499 116.889 234.999 119.232 231.197 119.306 228.045 121.389 236.6 121.463 238.451 121.835 239.752 122.43 240.653 128.938 231.347 135.409 243.955 142.233 239.752 146.417 235.149 150.433 242.254 154.672 240.502 156.16 239.102 157.666 236.6 159.098 240.803 176.632 241.703 195.319 237.951 211.943 240.953 256.364 235.349 303.836 243.254 350.674 235.85 361.719 232.998 373.192 228.946 383.958 225.694 383.958 225.694 392.679 216.788 392.679 176.764S394.538 141.743 394.817 109.874C395.096 78.004 396.398 76.704 394.538 51.689Z" opacity="1" fill="#233565" data-fill-palette-color="tertiary"></path><g transform="matrix(1,0,0,1,55.76832,26.230666666666668)"><svg width="283.98335999999995" viewBox="1.22 -30.4 49.76 33.04" height="188.53262319921487" data-palette-color="#ffffff"><path d="M22.22 0L7.03-26.49 1.22-26.49 1.22-30.4 20.7-30.4 20.7-26.49 13.65-26.49 25.2-5.1 36.87-26.49 29.88-26.49 29.88-30.4 48.24-30.4 48.24-26.49 42.75-26.49 27.49 0 22.22 0ZM24.05 1.71L28.66 1.71 43.68-24.78 50-24.78 50-29.15 50.98-29.15 50.98-23.85 44.29-23.85 29.27 2.64 24.56 2.64 24.05 1.71ZM25.44-8.37L16.63-24.78 22.46-24.78 22.46-29.15 23.44-29.15 23.44-23.85 18.24-23.85 26.03-9.38 25.44-8.37ZM31.47-23.85L31.47-24.78 34.59-24.78 34.08-23.85 31.47-23.85ZM2.81-23.85L2.81-24.78 6.27-23.85 6.81-23.85 2.81-23.85Z" opacity="1" transform="matrix(1,0,0,1,0,0)" fill="#ffffff" class="wordmark-text-0" data-fill-palette-color="quaternary" id="text-0"></path></svg></g></svg></g></svg></g></svg></g><g></g></svg></g><defs></defs></svg><rect width="395.52" height="240.9939565325482" fill="none" stroke="none" visibility="hidden"></rect></g></svg></g></svg>